<?xml version="1.0" encoding="UTF-8"?>
<!-- Generated by Pixelmator Pro 3.7 -->
<svg width="301" height="301" viewBox="0 0 301 301" xmlns="http://www.w3.org/2000/svg">
    <path id="CheckersPiece" fill="#ffffff" fill-rule="evenodd" stroke="none" d="M 150.499115 0.498535 C 233.285431 0.498535 300.497345 67.716522 300.497345 150.497131 C 300.497345 233.287079 233.285431 300.505066 150.499115 300.505066 C 67.712784 300.505066 0.500847 233.287079 0.500847 150.497131 C 0.500847 67.716522 67.712784 0.498535 150.499115 0.498535 Z M 150.499115 32.647003 C 85.451096 32.647003 32.640106 85.455841 32.640106 150.497131 C 32.640106 215.547653 85.451096 268.356476 150.499115 268.356476 C 215.547119 268.356476 268.358185 215.547653 268.358185 150.497131 C 268.358185 85.455841 215.547119 32.647003 150.499115 32.647003 Z M 150.499115 64.786285 C 197.808899 64.786285 236.211304 103.19516 236.211304 150.497131 C 236.211304 197.808319 197.808899 236.217194 150.499115 236.217194 C 103.189407 236.217194 64.786911 197.808319 64.786911 150.497131 C 64.786911 103.19516 103.189407 64.786285 150.499115 64.786285 Z"/>
</svg>
