<?xml version="1.0" encoding="UTF-8"?>
<!-- Generated by Pixelmator Pro 3.7 -->
<svg width="897" height="897" viewBox="0 0 897 897" xmlns="http://www.w3.org/2000/svg">
    <path id="Grid" fill="#ffffff" fill-rule="evenodd" stroke="none" d="M 448.999969 0.000854 C 462.797729 0.000854 473.999817 11.203003 473.999817 25.000244 L 473.999817 373 C 474 400.596008 496.405029 423 524 423 L 871.999084 423.000122 C 885.792358 423.000122 896.994507 434.202209 896.994507 448.000061 C 896.994507 461.798187 885.792358 473.000458 871.999084 473.000458 L 523.783997 473.000458 C 496.288208 473.117004 474 495.477081 474 523 L 473.999817 870.993835 C 473.999817 884.7854 462.797729 896.00647 448.999969 896.00647 C 435.202026 896.00647 423.999908 884.7854 423.999908 870.993835 L 423.999908 522.903381 C 423.947815 495.424774 401.680664 473.116882 374.216003 473.000458 L 25.999504 473.000458 C 12.201393 473.000458 0.999249 461.798187 0.999249 448.000061 C 0.999249 434.202209 12.201393 423.000122 25.999504 423.000122 L 374 423.000122 C 401.563782 423 423.947693 400.648285 423.999908 373.096619 L 423.999908 25.000244 C 423.999908 11.203003 435.202026 0.000854 448.999969 0.000854 Z"/>
</svg>
