<?xml version="1.0" encoding="UTF-8"?>
<!-- Generated by Pixelmator Pro 3.7 -->
<svg width="233" height="301" viewBox="0 0 233 301" xmlns="http://www.w3.org/2000/svg">
    <path id="Rook" fill="#ffffff" stroke="none" d="M 88.233276 15.951416 C 88.233276 11.771973 89.86496 7.86084 92.764145 5.029602 C 95.64975 2.061707 99.574036 0.443542 103.673218 0.443542 L 128.3638 0.443542 C 132.449829 0.443542 136.373688 2.061707 139.273285 5.029602 C 142.172485 7.86084 143.790588 11.771973 143.790588 15.951416 L 143.790588 15.951416 C 143.790588 19.997498 145.422272 23.906982 148.307861 26.874878 C 151.207062 29.706177 155.131348 31.32428 159.23053 31.32428 L 162.6828 31.32428 C 166.768829 31.32428 170.706268 29.706177 173.591888 26.874878 C 176.491058 23.906982 178.109161 19.997498 178.109161 15.951416 L 178.109161 15.951416 C 178.109161 11.771973 179.740845 7.86084 182.640045 5.029602 C 185.526062 2.061707 189.449921 0.443542 193.54953 0.443542 L 216.015015 0.443542 C 224.942169 0.443542 232.18335 7.725891 232.18335 16.626343 L 232.18335 21.210693 C 232.18335 24.311951 230.969757 27.278198 228.7854 29.436218 C 226.614197 31.594238 223.661102 32.807434 220.586609 32.807434 L 220.586609 32.807434 C 217.498535 32.807434 214.558624 34.020569 212.374268 36.313599 C 210.203064 38.471619 208.975891 41.302917 208.975891 44.404175 L 208.975891 53.574524 C 208.975891 58.968811 207.519501 64.093079 204.75531 68.677429 C 202.179596 72.991882 198.849121 78.386108 196.084503 82.970459 C 192.565155 88.769653 190.704254 95.377075 190.704254 102.254456 L 190.704254 195.029968 C 190.704254 204.333679 193.252808 213.36908 198.053253 221.189697 C 200.075867 224.425903 202.23349 227.932068 204.081238 231.033325 C 207.290283 236.292603 208.975891 242.226746 208.975891 248.42926 L 208.975891 256.251465 C 208.975891 259.352722 210.203064 262.31897 212.374268 264.47699 C 214.558624 266.633362 217.498535 267.848206 220.586609 267.848206 L 220.586609 267.848206 C 223.661102 267.848206 226.614197 269.19635 228.7854 271.35437 C 230.969757 273.510742 232.18335 276.478699 232.18335 279.579895 L 232.18335 284.164307 C 232.18335 293.199707 224.888275 300.480347 215.893616 300.480347 L 17.127777 300.480347 C 8.119949 300.480347 0.824875 293.199707 0.824875 284.164307 L 0.824875 279.579895 C 0.824875 276.478699 2.05162 273.510742 4.222824 271.35437 C 6.407181 269.19635 9.360687 267.848206 12.435181 267.848206 L 12.435181 267.848206 C 15.509674 267.848206 18.462769 266.633362 20.647125 264.47699 C 22.818329 262.31897 24.045486 259.352722 24.045486 256.251465 L 24.045486 247.216064 C 24.045486 241.956787 25.542206 236.562561 28.387482 231.978149 C 31.030685 227.662109 34.428635 222.269531 37.260742 217.548523 C 40.887909 211.750977 42.802734 205.008606 42.802734 198.131226 L 42.802734 106.29895 C 42.802734 96.995178 40.213837 87.959778 35.345932 80.004211 C 33.255798 76.632996 31.044266 73.126831 29.142624 70.025574 C 25.812164 64.631348 24.045486 58.428894 24.045486 52.091431 L 24.045486 44.404175 C 24.045486 41.302917 22.818329 38.471619 20.647125 36.313599 C 18.462769 34.020569 15.509674 32.807434 12.435181 32.807434 L 12.435181 32.807434 C 9.360687 32.807434 6.407181 31.594238 4.222824 29.436218 C 2.05162 27.278198 0.824875 24.311951 0.824875 21.210693 L 0.824875 16.626343 C 0.824875 7.725891 8.06604 0.443542 17.006378 0.443542 L 38.4879 0.443542 C 47.010147 0.443542 53.914276 7.455933 53.914276 15.951416 L 53.914276 15.951416 C 53.914276 19.997498 55.545959 23.906982 58.431564 26.874878 C 61.331161 29.706177 65.255035 31.32428 69.354218 31.32428 L 72.806488 31.32428 C 76.892502 31.32428 80.829971 29.706177 83.715561 26.874878 C 86.615158 23.906982 88.233276 19.997498 88.233276 15.951416 L 88.233276 15.951416 Z"/>
</svg>
